<?xml version="1.0" encoding="UTF-8"?>
<svg width="219px" height="186px" viewBox="0 0 219 186" version="1.1" xmlns="http://www.w3.org/2000/svg" xmlns:xlink="http://www.w3.org/1999/xlink">
    <!-- Generator: Sketch 51.2 (57519) - http://www.bohemiancoding.com/sketch -->
    <title>Fill 27</title>
    <desc>Created with Sketch.</desc>
    <defs></defs>
    <g id="Page-1" stroke="none" stroke-width="1" fill="none" fill-rule="evenodd">
        <g id="First-screen" transform="translate(-977.000000, -562.000000)" fill="#FDBF31">
            <path d="M1148.65478,625.578478 C1141.62246,624.294024 1134.46541,623.490381 1127.27826,623.043913 C1122.65026,622.755426 1118.01367,622.614617 1113.38137,622.614617 C1102.93828,622.614617 1092.50808,623.335834 1082.20692,624.764533 C1074.82622,625.784541 1067.51863,627.147986 1060.37449,628.947596 C1053.58303,630.661347 1047.00234,632.886819 1040.52486,635.235929 C1033.78072,637.681201 1027.1054,640.274151 1020.70965,643.258619 C1014.701,646.0645 1009.07945,649.361495 1003.55682,652.734047 C994.730941,658.122575 986.317969,663.888883 978.249086,669.981457 C970.614615,675.740897 963.066167,681.991451 959.306996,689.990101 C959.066134,690.553337 958.829573,691.123443 958.58441,691.690114 C958.31344,692.850931 958.412365,693.987708 958.881186,695.103878 C959.595171,696.783286 961.126366,698.17764 963.113479,698.964111 C965.100592,699.747148 967.423191,699.870785 969.522133,699.300679 C971.449031,698.782089 973.612489,697.504504 974.35228,695.924693 C975.350138,693.805686 976.661976,691.772539 978.150161,689.849291 C981.006098,686.693105 984.45989,683.883789 987.94809,681.18094 C991.539517,678.395665 995.225569,675.679078 998.997643,673.04835 C1005.22565,668.800033 1011.68592,664.771517 1018.32683,660.945628 C1025.07527,657.051051 1032.16781,653.668196 1039.61733,650.718072 C1045.86684,648.324315 1052.22388,646.085106 1058.70136,644.12408 C1065.53582,642.053155 1072.58104,640.473344 1079.72518,639.264446 C1093.48874,637.13857 1107.59208,636.324624 1121.59649,636.877558 C1128.40945,637.258773 1135.188,637.990294 1141.86763,639.120202 C1148.51284,640.239807 1155.05483,641.737193 1161.50219,643.437206 C1170.96464,646.037025 1180.28514,649.06614 1189.35188,652.442126 C1192.00137,653.431225 1194.65085,654.427192 1197.27453,655.457503 C1194.79279,655.780334 1192.31535,656.13064 1189.86802,656.601149 C1186.67659,657.219336 1183.63571,658.321769 1180.97762,659.87067 C1179.07653,660.973103 1178.14319,662.837966 1178.91739,664.665051 C1179.3561,665.705665 1180.30665,666.571127 1181.54107,667.055373 C1182.8314,667.56366 1184.15184,667.56366 1185.51099,667.268304 C1187.70886,666.780623 1189.95404,666.41658 1192.18202,666.018193 C1199.99713,664.847073 1207.91548,664.060602 1215.84242,663.57979 C1217.6704,664.338786 1219.19729,664.582626 1220.8016,664.493333 C1223.107,664.366261 1225.30056,663.507668 1226.83176,662.130486 C1228.42317,660.705222 1229.24038,658.795712 1229.07264,656.89307 C1229.01672,656.278318 1228.85758,655.701344 1228.62102,655.155279 C1228.5436,654.131836 1228.1479,653.125566 1227.3737,652.246367 C1224.05754,648.506337 1220.93064,644.670145 1217.83384,640.816781 C1215.33919,637.708676 1212.90046,634.531883 1210.79722,631.238321 C1209.78646,629.497095 1208.87462,627.800516 1206.95203,626.533234 C1205.57997,625.62656 1203.91975,625.111404 1202.2036,625.111404 C1201.47241,625.111404 1200.72832,625.204132 1199.98853,625.403326 C1196.87883,626.244746 1195.13258,628.586987 1195.21,631.138725 C1195.26591,633.140963 1196.4014,634.830673 1197.58851,636.530687 C1198.29819,637.540392 1198.98637,638.5604 1199.67455,639.583842 C1199.4982,639.673136 1199.18852,639.559801 1198.87454,639.446467 C1189.19274,636.005228 1179.30449,632.900557 1169.23989,630.235485 C1162.45704,628.439309 1155.62258,626.849196 1148.65478,625.578478 Z" id="Fill-27" transform="translate(1093.764865, 661.134546) rotate(150.000000) translate(-1093.764865, -661.134546) "></path>
        </g>
    </g>
</svg>